<svg xmlns="http://www.w3.org/2000/svg" viewBox="0 0 64 64" width="64" height="64">
  <!-- Background circle with gradient feel -->
  <circle cx="32" cy="32" r="30" fill="#0d9488"/>

  <!-- User head -->
  <circle cx="32" cy="24" r="9" fill="#ffffff"/>

  <!-- User body (shoulders) -->
  <path d="M 32 33 Q 20 33 16 45 Q 16 50 20 52 L 44 52 Q 48 50 48 45 Q 44 33 32 33 Z"
        fill="#ffffff"/>

  <!-- Friendly smile curve -->
  <circle cx="29" cy="23" r="1.5" fill="#0d9488"/>
  <circle cx="35" cy="23" r="1.5" fill="#0d9488"/>
  <path d="M 28 26 Q 32 28 36 26" stroke="#0d9488" stroke-width="1.5"
        fill="none" stroke-linecap="round"/>

  <!-- Service badge/star accent -->
  <circle cx="46" cy="18" r="6" fill="#14b8a6"/>
  <path d="M 46 15 L 47 17.5 L 49.5 17.5 L 47.5 19 L 48 21.5 L 46 20 L 44 21.5 L 44.5 19 L 42.5 17.5 L 45 17.5 Z"
        fill="#ffffff"/>
</svg>
